<mxfile host="app.diagrams.net" modified="2024-05-14T19:06:31.894Z" agent="Mozilla/5.0 (Macintosh; Intel Mac OS X 10_15_7) AppleWebKit/537.36 (KHTML, like Gecko) Chrome/123.0.0.0 Safari/537.36" version="24.4.0" etag="S4MKVYhbpb_DxcVHWoWr" type="github">
  <diagram name="Page-1" id="6tf_PHjiIzISdIIaNZcg">
    <mxGraphModel>
      <root>
        <mxCell id="0" />
        <mxCell id="1" parent="0" />
      </root>
    </mxGraphModel>
  </diagram>
</mxfile>
